<?xml version="1.0" encoding="UTF-8" standalone="no"?>
<!-- Created with Inkscape (http://www.inkscape.org/) -->

<svg
   xmlns:dc="http://purl.org/dc/elements/1.1/"
   xmlns:cc="http://creativecommons.org/ns#"
   xmlns:rdf="http://www.w3.org/1999/02/22-rdf-syntax-ns#"
   xmlns:svg="http://www.w3.org/2000/svg"
   xmlns="http://www.w3.org/2000/svg"
   xmlns:sodipodi="http://sodipodi.sourceforge.net/DTD/sodipodi-0.dtd"
   xmlns:inkscape="http://www.inkscape.org/namespaces/inkscape"
   width="240"
   height="20"
   id="svg3011"
   version="1.1"
   inkscape:version="0.91 r13725"
   sodipodi:docname="login-iconset.svg">
  <defs
     id="defs3013">
    <clipPath
       clipPathUnits="userSpaceOnUse"
       id="clipPath16">
      <path
         d="M 0,96 96,96 96,0 0,0 0,96 Z"
         id="path18"
         inkscape:connector-curvature="0" />
    </clipPath>
    <clipPath
       clipPathUnits="userSpaceOnUse"
       id="clipPath16-1">
      <path
         inkscape:connector-curvature="0"
         d="M 0,96 96,96 96,0 0,0 0,96 Z"
         id="path18-5" />
    </clipPath>
    <clipPath
       clipPathUnits="userSpaceOnUse"
       id="clipPath16-0">
      <path
         inkscape:connector-curvature="0"
         d="M 0,96 96,96 96,0 0,0 0,96 Z"
         id="path18-9" />
    </clipPath>
  </defs>
  <sodipodi:namedview
     id="base"
     pagecolor="#ffffff"
     bordercolor="#666666"
     borderopacity="1.0"
     inkscape:pageopacity="0.0"
     inkscape:pageshadow="2"
     inkscape:zoom="2.8"
     inkscape:cx="103.10861"
     inkscape:cy="24.079055"
     inkscape:document-units="px"
     inkscape:current-layer="layer1"
     showgrid="false"
     inkscape:window-width="1440"
     inkscape:window-height="812"
     inkscape:window-x="158"
     inkscape:window-y="13"
     inkscape:window-maximized="0" />
  <metadata
     id="metadata3016">
    <rdf:RDF>
      <cc:Work
         rdf:about="">
        <dc:format>image/svg+xml</dc:format>
        <dc:type
           rdf:resource="http://purl.org/dc/dcmitype/StillImage" />
        <dc:title />
      </cc:Work>
    </rdf:RDF>
  </metadata>
  <g
     inkscape:label="Layer 1"
     inkscape:groupmode="layer"
     id="layer1"
     transform="translate(0,-1032.3622)">
    <path
       d="m 10.384616,1032.5064 0,3.1731 -1.887016,0 q -1.0336564,0 -1.3942325,0.4327 -0.3605754,0.4327 -0.3605754,1.2981 l 0,2.2716 3.5216319,0 -0.4687517,3.5578 -3.0528802,0 0,9.1225 -3.6778881,0 0,-9.1225 -3.064904,0 0,-3.5578 3.064904,0 0,-2.6202 q 0,-2.2356 1.25,-3.4675 1.25,-1.232 3.3293281,-1.232 1.7668241,0 2.7403839,0.1442 z"
       id="path4"
       inkscape:connector-curvature="0"
       style="fill:#ffffff" />
    <path
       d="m 48.943008,1036.4964 q -0.805322,1.1779 -1.947187,2.0073 0.012,0.1682 0.012,0.5047 0,1.5626 -0.456748,3.119 -0.456747,1.5566 -1.388267,2.987 -0.931526,1.4303 -2.217627,2.5301 -1.28611,1.0999 -3.101076,1.7548 -1.81496,0.6552 -3.882345,0.6552 -3.257327,0 -5.961758,-1.7428 0.420692,0.048 0.937534,0.048 2.704432,0 4.819895,-1.6587 -1.26207,-0.024 -2.259699,-0.7754 -0.997637,-0.7511 -1.370244,-1.9172 0.396646,0.06 0.733197,0.06 0.51685,0 1.021677,-0.1322 -1.346204,-0.2765 -2.229654,-1.3402 -0.883446,-1.0632 -0.883446,-2.4695 l 0,-0.048 q 0.817337,0.4567 1.754872,0.4928 -0.793298,-0.5289 -1.262062,-1.3824 -0.468772,-0.8534 -0.468772,-1.8509 0,-1.0577 0.528867,-1.9593 1.454384,1.791 3.539791,2.8667 2.085416,1.0757 4.465313,1.196 -0.09616,-0.4567 -0.09616,-0.8895 0,-1.6105 1.135858,-2.7464 1.135865,-1.1359 2.746502,-1.1359 1.682753,0 2.836636,1.2261 1.310147,-0.2524 2.464036,-0.9377 -0.444732,1.3824 -1.706793,2.1396 1.117824,-0.1202 2.235658,-0.6009 z"
       id="path4-1"
       inkscape:connector-curvature="0"
       style="fill:#ffffff" />
    <path
       d="m 68.449361,1041.9297 q 0,0.4327 0.384608,0.8473 0.384608,0.4147 0.931467,0.8174 0.546866,0.4026 1.087725,0.8833 0.540851,0.4808 0.925459,1.25 0.384608,0.7692 0.384608,1.7067 0,1.0817 -0.576912,2.0793 -0.865368,1.4663 -2.536005,2.1574 -1.670645,0.6911 -3.581662,0.6911 -1.586508,0 -2.962688,-0.4988 -1.376175,-0.4988 -2.061258,-1.6526 Q 60,1049.4897 60,1048.6364 q 0,-0.9737 0.534846,-1.803 0.534845,-0.8292 1.424251,-1.3821 1.574489,-0.9856 4.85568,-1.2019 -0.384608,-0.5048 -0.570905,-0.8894 -0.186296,-0.3846 -0.186296,-0.8774 0,-0.4326 0.252403,-1.0216 -0.552874,0.048 -0.817292,0.048 -1.778812,0 -2.998745,-1.1599 -1.219928,-1.1598 -1.219928,-2.9386 0,-0.9855 0.432684,-1.9111 0.432684,-0.9254 1.189881,-1.5744 0.925463,-0.7933 2.19347,-1.1779 1.268006,-0.3846 2.614133,-0.3846 l 5.023943,0 -1.658623,1.0577 -1.574492,0 q 0.889406,0.7572 1.346128,1.5985 0.456722,0.8413 0.456722,1.923 0,0.8654 -0.294464,1.5565 -0.294464,0.6911 -0.709124,1.1178 -0.414654,0.4267 -0.835315,0.7812 -0.420669,0.3546 -0.715133,0.7392 -0.294463,0.3846 -0.294463,0.7933 z m -1.754774,-1.1538 q 0.456722,0 0.937482,-0.1983 0.48076,-0.1983 0.793253,-0.5229 0.637004,-0.685 0.637004,-1.911 0,-0.697 -0.204319,-1.5023 -0.204327,-0.8054 -0.582928,-1.5565 -0.378592,-0.7512 -1.015603,-1.2439 -0.637004,-0.4928 -1.406219,-0.4928 -0.504798,0 -0.991574,0.2343 -0.486767,0.2344 -0.787238,0.6311 -0.564897,0.709 -0.564897,1.923 0,0.5528 0.12019,1.1718 0.12019,0.619 0.378601,1.238 0.25841,0.619 0.624987,1.1117 0.366578,0.4928 0.901422,0.8053 0.534851,0.3125 1.159839,0.3125 z m 0.024,10.4925 q 0.697102,0 1.340113,-0.1562 0.643018,-0.1562 1.189885,-0.4688 0.546866,-0.3124 0.877383,-0.8773 0.330524,-0.5649 0.330524,-1.3101 0,-0.3004 -0.08413,-0.5889 -0.08414,-0.2884 -0.174281,-0.5048 -0.09014,-0.2163 -0.32451,-0.4988 -0.234372,-0.2825 -0.354562,-0.4207 -0.12019,-0.1381 -0.462729,-0.4146 -0.34254,-0.2764 -0.438692,-0.3485 -0.09615,-0.072 -0.49879,-0.3606 -0.402639,-0.2884 -0.438692,-0.3125 -0.192304,-0.024 -0.576912,-0.024 -0.637011,0 -1.261999,0.084 -0.624987,0.084 -1.292044,0.3006 -0.667049,0.2163 -1.16584,0.5528 -0.49879,0.3365 -0.823303,0.8954 -0.324513,0.5588 -0.324513,1.268 0,0.8414 0.420666,1.4844 0.420664,0.643 1.099736,0.9975 0.679079,0.3545 1.430264,0.5289 0.751187,0.1742 1.532425,0.1742 z m 9.73539,-10.5286 2.560043,0 0,1.2981 -2.560043,0 0,2.6321 -1.261999,0 0,-2.6321 -2.548028,0 0,-1.2981 2.548028,0 0,-2.6081 1.261999,0 0,2.6081 z"
       id="path4-0"
       style="fill:#ffffff"
       inkscape:connector-curvature="0" />
    <path
       d="m 94.206142,1039.2648 0,11.9436 -3.977154,0 0,-11.9436 3.977154,0 z m 0.253092,-3.6878 q 0.01208,0.8797 -0.608623,1.4703 -0.620677,0.5905 -1.633046,0.5905 l -0.02408,0 q -0.988262,0 -1.590862,-0.5905 Q 90,1036.4567 90,1035.577 q 0,-0.8919 0.620677,-1.4764 0.620677,-0.5846 1.620992,-0.5846 1.000316,0 1.602916,0.5846 0.6026,0.5845 0.614646,1.4764 z m 14.052616,8.7858 0,6.8456 -3.96511,0 0,-6.3876 q 0,-1.2654 -0.4881,-1.9825 -0.48811,-0.7172 -1.52458,-0.7172 -0.75927,0 -1.27148,0.4159 -0.51221,0.4157 -0.7653,1.0304 -0.13258,0.3616 -0.13258,0.9762 l 0,6.6648 -3.965097,0 q 0.02408,-4.8088 0.02408,-7.7977 0,-2.9889 -0.01208,-3.5673 l -0.01208,-0.5786 3.965097,0 0,1.7356 -0.0241,0 q 0.24104,-0.3857 0.49413,-0.675 0.2531,-0.2892 0.68094,-0.6267 0.42785,-0.3374 1.04853,-0.5243 0.62067,-0.1867 1.37994,-0.1867 2.06089,0 3.3143,1.3678 1.25341,1.3679 1.25341,4.0073 z"
       id="path4-7"
       style="fill:#ffffff"
       inkscape:connector-curvature="0" />
    <path
       d="m 137.6923,1042.6147 q 0,2.4074 -1.1864,4.4403 -1.18639,2.0331 -3.2194,3.2195 -2.03301,1.1864 -4.44035,1.1864 -1.27855,0 -2.51102,-0.3687 0.67959,-1.0711 0.89843,-1.889 0.10367,-0.3916 0.622,-2.4303 0.23036,0.4491 0.84085,0.7774 0.61047,0.3283 1.31309,0.3283 1.39373,0 2.48798,-0.789 1.09426,-0.789 1.69322,-2.1712 0.59895,-1.3822 0.59895,-3.11 0,-1.3131 -0.68534,-2.4649 -0.68535,-1.1519 -1.98693,-1.8775 -1.30159,-0.7257 -2.9372,-0.7257 -1.20943,0 -2.25761,0.3341 -1.04818,0.334 -1.7796,0.8868 -0.73142,0.553 -1.25551,1.2729 -0.52409,0.7198 -0.77173,1.4916 -0.24764,0.7718 -0.24764,1.5435 0,1.1978 0.46073,2.1078 0.46073,0.9099 1.34766,1.2785 0.34554,0.1384 0.4377,-0.2303 0.023,-0.081 0.0921,-0.3571 0.0691,-0.2765 0.0922,-0.3456 0.0691,-0.2649 -0.12671,-0.4953 -0.58744,-0.7026 -0.58744,-1.7392 0,-1.7393 1.20369,-2.989 1.20367,-1.2498 3.15029,-1.2498 1.73928,0 2.71258,0.9445 0.9733,0.9445 0.9733,2.4535 0,1.9581 -0.789,3.3288 -0.78901,1.3707 -2.02149,1.3707 -0.70262,0 -1.1288,-0.5012 -0.42618,-0.501 -0.26493,-1.2035 0.0922,-0.4032 0.30524,-1.0771 0.2131,-0.6737 0.34556,-1.1863 0.13246,-0.5127 0.13246,-0.8697 0,-0.5758 -0.311,-0.956 -0.311,-0.3801 -0.88692,-0.3801 -0.71414,0 -1.20944,0.6566 -0.49529,0.6565 -0.49529,1.6355 0,0.841 0.28797,1.4053 l -1.14033,4.8147 q -0.19582,0.8063 -0.14974,2.0388 -2.3728,-1.0482 -3.83563,-3.2367 Q 120,1045.2985 120,1042.6147 q 0,-2.4074 1.1864,-4.4403 1.18639,-2.0331 3.2194,-3.2195 2.03301,-1.1864 4.44036,-1.1864 2.40734,0 4.44035,1.1864 2.03301,1.1864 3.2194,3.2195 1.1864,2.0329 1.1864,4.4403 z"
       id="path4-5"
       inkscape:connector-curvature="0"
       style="fill:#ffffff" />
    <path
       d="m 165.6881,1048.467 0,-7.464 -1.55499,0 q 0.23037,0.7257 0.23037,1.509 0,1.4513 -0.73718,2.678 -0.73718,1.2267 -2.00421,1.9408 -1.26703,0.7142 -2.76443,0.7142 -2.26913,0 -3.8817,-1.5608 -1.61258,-1.5607 -1.61258,-3.7722 0,-0.7833 0.23036,-1.509 l -1.62409,0 0,7.464 q 0,0.2994 0.20157,0.501 0.20158,0.2016 0.50105,0.2016 l 12.3132,0 q 0.28796,0 0.49529,-0.2016 0.20734,-0.2016 0.20734,-0.501 z m -3.27124,-6.1393 q 0,-1.4283 -1.04242,-2.4362 -1.04241,-1.0078 -2.51678,-1.0078 -1.46283,0 -2.50525,1.0078 -1.04242,1.0079 -1.04242,2.4362 0,1.4282 1.04242,2.4361 1.04242,1.0079 2.50525,1.0079 1.47437,0 2.51678,-1.0079 1.04242,-1.0079 1.04242,-2.4361 z m 3.27124,-4.1467 0,-1.9005 q 0,-0.3225 -0.23037,-0.5587 -0.23037,-0.2361 -0.5644,-0.2361 l -2.00421,0 q -0.33404,0 -0.5644,0.2361 -0.23037,0.2362 -0.23037,0.5587 l 0,1.9005 q 0,0.334 0.23037,0.5644 0.23036,0.2304 0.5644,0.2304 l 2.00421,0 q 0.33403,0 0.5644,-0.2304 0.23037,-0.2304 0.23037,-0.5644 z m 2.0042,-2.3958 0,13.154 q 0,0.933 -0.66807,1.6011 -0.66807,0.6681 -1.60106,0.6681 l -13.15404,0 q -0.933,0 -1.60107,-0.6681 Q 150,1049.8722 150,1048.9392 l 0,-13.154 q 0,-0.933 0.66806,-1.6011 0.66807,-0.6681 1.60107,-0.6681 l 13.15404,0 q 0.93299,0 1.60106,0.6681 0.66807,0.6681 0.66807,1.6011 z"
       id="path4-8"
       inkscape:connector-curvature="0"
       style="fill:#ffffff" />
    <path
       d="m 189.32005,1045.7979 0,2.0832 q 0,0.6615 -0.38504,0.6615 -0.22708,0 -0.44428,-0.2172 l 0,-2.9717 q 0.2172,-0.2173 0.44428,-0.2173 0.38504,0 0.38504,0.6615 z m 3.33706,0.01 0,0.4541 -0.88857,0 0,-0.4541 q 0,-0.6714 0.44428,-0.6714 0.44429,0 0.44429,0.6714 z m -9.53727,-2.1523 1.05641,0 0,-0.9281 -3.08035,0 0,0.9281 1.03665,0 0,5.6177 0.98729,0 0,-5.6177 z m 2.84341,5.6177 0.87869,0 0,-4.8773 -0.87869,0 0,3.732 q -0.29618,0.4147 -0.56275,0.4147 -0.17772,0 -0.20733,-0.2073 -0.01,-0.03 -0.01,-0.3457 l 0,-3.5937 -0.87869,0 0,3.8604 q 0,0.4837 0.079,0.7206 0.11848,0.3654 0.57263,0.3654 0.4739,0 1.00704,-0.6023 l 0,0.5332 z m 4.23549,-1.4613 0,-1.9449 q 0,-0.7207 -0.0889,-0.9774 -0.16784,-0.5529 -0.70098,-0.5529 -0.49365,0 -0.91818,0.5331 l 0,-2.1424 -0.87869,0 0,6.5458 0.87869,0 0,-0.4739 q 0.44428,0.543 0.91818,0.543 0.53314,0 0.70098,-0.543 0.0889,-0.2666 0.0889,-0.9874 z m 3.33706,-0.099 0,-0.1284 -0.89844,0 q 0,0.5035 -0.0198,0.6022 -0.0691,0.3555 -0.39491,0.3555 -0.45416,0 -0.45416,-0.6813 l 0,-0.8589 1.76726,0 0,-1.0169 q 0,-0.78 -0.26657,-1.1453 -0.38505,-0.5035 -1.04653,-0.5035 -0.67137,0 -1.05641,0.5035 -0.27644,0.3653 -0.27644,1.1453 l 0,1.708 q 0,0.78 0.28631,1.1452 0.38505,0.5036 1.06628,0.5036 0.71086,0 1.06628,-0.5233 0.17771,-0.2666 0.20733,-0.5331 0.0198,-0.089 0.0198,-0.5726 z m -6.00275,-9.014 0,-2.0734 q 0,-0.6812 -0.42454,-0.6812 -0.42453,0 -0.42453,0.6812 l 0,2.0734 q 0,0.691 0.42453,0.691 0.42454,0 0.42454,-0.691 z m 7.09865,7.4145 q 0,2.3103 -0.2567,3.4555 -0.13822,0.5826 -0.57263,0.9775 -0.43441,0.3949 -1.00704,0.4541 -1.81662,0.2074 -5.47949,0.2074 -3.66286,0 -5.47947,-0.2074 -0.57263,-0.059 -1.01198,-0.4541 -0.43935,-0.3949 -0.56769,-0.9775 -0.2567,-1.1058 -0.2567,-3.4556 0,-2.3102 0.2567,-3.4555 0.13821,-0.5825 0.57262,-0.9774 0.43442,-0.3949 1.01692,-0.464 1.80674,-0.1975 5.4696,-0.1975 3.66287,0 5.47949,0.1975 0.57263,0.069 1.01198,0.464 0.43934,0.3949 0.56769,0.9774 0.2567,1.1057 0.2567,3.4555 z m -9.8532,-12.5979 1.00704,0 -1.19463,3.9393 0,2.6755 -0.98729,0 0,-2.6755 q -0.13822,-0.7306 -0.60224,-2.0931 -0.3653,-1.0169 -0.64175,-1.8462 l 1.04653,0 0.70098,2.5966 z m 3.65299,3.2877 0,1.7277 q 0,0.7997 -0.27645,1.165 -0.3653,0.5036 -1.04653,0.5036 -0.66148,0 -1.03665,-0.5036 -0.27645,-0.3751 -0.27645,-1.165 l 0,-1.7277 q 0,-0.7899 0.27645,-1.1552 0.37517,-0.5035 1.03665,-0.5035 0.68123,0 1.04653,0.5035 0.27645,0.3653 0.27645,1.1552 z m 3.30743,-1.5994 0,4.9265 -0.89844,0 0,-0.543 q -0.52326,0.6122 -1.0169,0.6122 -0.45416,0 -0.58251,-0.3653 -0.079,-0.237 -0.079,-0.7405 l 0,-3.8899 0.89844,0 0,3.6233 q 0,0.3258 0.01,0.3456 0.0296,0.2172 0.20733,0.2172 0.26657,0 0.56275,-0.4246 l 0,-3.7615 0.89844,0 z"
       id="path4-57"
       style="fill:#ffffff"
       inkscape:connector-curvature="0" />
    <path
       inkscape:connector-curvature="0"
       style="fill:#ffffff"
       d="m 220.528,1048.3345 0.96146,2.8483 q -0.27642,0.4207 -1.33402,0.7932 -1.05761,0.3726 -2.12724,0.3846 -1.2499,0.024 -2.28948,-0.3124 -1.03958,-0.3366 -1.7126,-0.8894 -0.67302,-0.5528 -1.14174,-1.2739 -0.46871,-0.7211 -0.66701,-1.4422 -0.1983,-0.7211 -0.1983,-1.4182 l 0,-6.5379 -2.01907,0 0,-2.5839 q 0.86532,-0.3125 1.55036,-0.8353 0.68504,-0.5228 1.09366,-1.0817 0.40862,-0.5588 0.69706,-1.2258 0.28844,-0.667 0.40862,-1.1898 0.12018,-0.5228 0.18027,-1.0636 0.012,-0.06 0.0541,-0.1022 0.0421,-0.042 0.0901,-0.042 l 2.93246,0 0,5.0958 4.00208,0 0,3.0286 -4.0141,0 0,6.2254 q 0,0.3606 0.0781,0.6731 0.0781,0.3124 0.27041,0.6309 0.19229,0.3185 0.59491,0.4988 0.40261,0.1803 0.97948,0.1682 0.93743,-0.024 1.61045,-0.3485 z"
       id="path4-05" />
  </g>
</svg>
