<?xml version="1.0" encoding="UTF-8" standalone="no"?>
<!-- Created with Inkscape (http://www.inkscape.org/) -->

<svg
   xmlns:dc="http://purl.org/dc/elements/1.1/"
   xmlns:cc="http://creativecommons.org/ns#"
   xmlns:rdf="http://www.w3.org/1999/02/22-rdf-syntax-ns#"
   xmlns:svg="http://www.w3.org/2000/svg"
   xmlns="http://www.w3.org/2000/svg"
   xmlns:sodipodi="http://sodipodi.sourceforge.net/DTD/sodipodi-0.dtd"
   xmlns:inkscape="http://www.inkscape.org/namespaces/inkscape"
   id="svg2"
   version="1.1"
   inkscape:version="0.48.2 r9819"
   width="17"
   height="17"
   xml:space="preserve"
   sodipodi:docname="Vector Smart Object.ai"><metadata
     id="metadata8"><rdf:RDF><cc:Work
         rdf:about=""><dc:format>image/svg+xml</dc:format><dc:type
           rdf:resource="http://purl.org/dc/dcmitype/StillImage" /><dc:title></dc:title></cc:Work></rdf:RDF></metadata><defs
     id="defs6"><clipPath
       clipPathUnits="userSpaceOnUse"
       id="clipPath16"><path
         d="M 0,79 79,79 79,0 0,0 0,79 z"
         id="path18"
         inkscape:connector-curvature="0" /></clipPath></defs><sodipodi:namedview
     pagecolor="#ffffff"
     bordercolor="#666666"
     borderopacity="1"
     objecttolerance="10"
     gridtolerance="10"
     guidetolerance="10"
     inkscape:pageopacity="0"
     inkscape:pageshadow="2"
     inkscape:window-width="1099"
     inkscape:window-height="610"
     id="namedview4"
     showgrid="false"
     inkscape:zoom="2.3898734"
     inkscape:cx="123.4375"
     inkscape:cy="49.375"
     inkscape:window-x="127"
     inkscape:window-y="6"
     inkscape:window-maximized="0"
     inkscape:current-layer="g10" /><g
     id="g10"
     inkscape:groupmode="layer"
     inkscape:label="Vector Smart Object"
     transform="matrix(1.25,0,0,-1.25,0,17)"><g
       id="g12"
       style="fill:#dcdcdc;fill-opacity:1"
       transform="matrix(0.17215223,0,0,0.17215223,0,1.2417717e-4)"><g
         id="g14"
         clip-path="url(#clipPath16)"
         style="fill:#dcdcdc;fill-opacity:1"><g
           id="g20"
           transform="translate(9.5186,48.0664)"
           style="fill:#dcdcdc;fill-opacity:1"><path
             d="m 0,0 c 0,11.828 9.588,21.416 21.413,21.416 11.829,0 22.369,-10.539 22.369,-22.367 0,-11.828 -9.589,-21.416 -21.417,-21.416 C 10.539,-22.367 0,-11.828 0,0 m 67.706,-35.903 -18.894,18.894 c 2.848,4.681 4.489,10.177 4.489,16.058 0,17.082 -14.803,31.885 -31.888,31.885 C 4.331,30.934 -9.519,17.084 -9.519,0 c 0,-17.084 14.802,-31.885 31.884,-31.885 5.681,0 11,1.538 15.574,4.21 l 18.998,-18.997 c 1.859,-1.859 4.873,-1.859 6.73,0 l 4.712,4.711 c 1.859,1.859 1.185,4.199 -0.673,6.058"
             style="fill:#dcdcdc;fill-opacity:1;fill-rule:nonzero;stroke:none"
             id="path22"
             inkscape:connector-curvature="0" /></g></g></g></g></svg>