<?xml version="1.0" encoding="utf-8"?>
<!DOCTYPE svg PUBLIC "-//W3C//DTD SVG 1.1//EN" "http://www.w3.org/Graphics/SVG/1.1/DTD/svg11.dtd">
<svg version="1.1"
	 id="svg2" xmlns:rdf="http://www.w3.org/1999/02/22-rdf-syntax-ns#" xmlns:sodipodi="http://sodipodi.sourceforge.net/DTD/sodipodi-0.dtd" xmlns:inkscape="http://www.inkscape.org/namespaces/inkscape" xmlns:svg="http://www.w3.org/2000/svg" xmlns:dc="http://purl.org/dc/elements/1.1/" xmlns:cc="http://creativecommons.org/ns#" sodipodi:docname="Nieuw document 1" inkscape:version="0.48.4 r9939"
	 xmlns="http://www.w3.org/2000/svg" xmlns:xlink="http://www.w3.org/1999/xlink" x="0px" y="0px" width="108px" height="108px"
	 viewBox="0 0 108 108" enable-background="new 0 0 108 108" xml:space="preserve">
<linearGradient id="SVGID_1_" gradientUnits="userSpaceOnUse" x1="69.6016" y1="20.6445" x2="13.2818" y2="87.7637">
	<stop  offset="0" style="stop-color:#4CC1B6"/>
	<stop  offset="0.5072" style="stop-color:#28B9D6"/>
</linearGradient>
<path fill="url(#SVGID_1_)" d="M41.312,10.441c-5.515,0-10.763,0.906-15.709,2.757c-4.985,1.887-9.402,4.682-13.216,8.345
	c-3.813,3.702-6.797,8.271-9.024,13.708C1.132,40.688,0,46.994,0,54.134c0,7.173,1.095,13.48,3.247,18.88
	c2.152,5.438,5.098,9.971,8.875,13.631c3.738,3.664,8.156,6.459,13.179,8.311c5.024,1.848,10.348,2.756,16.012,2.756
	c5.814,0,11.252-0.908,16.35-2.756c5.023-1.852,9.402-4.646,13.068-8.311c3.697-3.66,6.605-8.193,8.684-13.631
	c1.475-3.777,2.455-8.005,2.91-12.648c0.15-1.854,0.225-3.741,0.262-5.739c0-0.149,0-0.304,0-0.491
	c0-7.138-1.094-13.446-3.246-18.883c-2.115-5.438-5.061-10.006-8.838-13.708c-3.736-3.663-8.154-6.458-13.215-8.345
	C52.3,11.348,46.975,10.441,41.312,10.441L41.312,10.441z M16.539,53.301c0-3.967,0.605-7.515,1.851-10.574
	c1.246-3.097,2.908-5.702,5.061-7.778c2.151-2.152,4.644-3.813,7.553-4.909c2.909-1.097,5.967-1.623,9.25-1.623
	c2.229,0,4.229,0.149,6.044,0.415c1.772,0.339,3.323,0.717,4.604,1.094c1.322,0.34,2.382,0.755,3.209,1.171
	c0.873,0.416,1.475,0.716,1.854,0.981l-3.097,8.608c-1.474-0.792-3.173-1.434-5.06-2c-1.854-0.565-3.93-0.869-6.195-0.869
	c-4.945,0-8.531,1.396-10.76,4.153c-2.228,2.758-3.323,6.534-3.323,11.328c0,2.343,0.264,4.456,0.831,6.382
	c0.566,1.924,1.396,3.549,2.492,4.871c1.095,1.359,2.456,2.418,4.118,3.21c1.658,0.72,3.586,1.095,5.776,1.095
	c1.168,0,2.188,0,3.021-0.037c0.869-0.039,1.623-0.15,2.265-0.264V52.014h10.722v23.487c-1.279,0.492-3.32,1.06-6.15,1.625
	c-2.832,0.565-6.346,0.83-10.498,0.83c-3.553,0-6.8-0.531-9.707-1.588c-2.908-1.132-5.361-2.757-7.439-4.832
	c-2.039-2.115-3.625-4.683-4.72-7.741C17.106,60.704,16.539,57.189,16.539,53.301L16.539,53.301z"/>
<sodipodi:namedview  fit-margin-left="0" inkscape:cy="22.497132" bordercolor="#666666" borderopacity="1.0" pagecolor="#ffffff" showgrid="false" fit-margin-top="0" inkscape:cx="491.8414" inkscape:zoom="0.7" id="base" inkscape:window-width="1920" inkscape:pageshadow="2" inkscape:window-x="-8" fit-margin-right="0" inkscape:current-layer="g2999" inkscape:document-units="px" inkscape:window-y="-8" inkscape:pageopacity="0.0" inkscape:window-maximized="1" fit-margin-bottom="0" inkscape:window-height="1018">
	</sodipodi:namedview>
<g>
	<path fill="#21AECF" d="M40.747,68.256c-2.075,0-3.938-0.352-5.538-1.046c-1.573-0.75-2.848-1.744-3.889-3.035
		c-1.042-1.257-1.843-2.825-2.384-4.665c-0.542-1.844-0.806-3.876-0.806-6.212c0-4.647,1.073-8.332,3.19-10.951
		c0.609-0.753,1.359-1.414,2.233-1.968l11.879,11.879v15.788c-0.599,0.093-1.154,0.149-1.691,0.173
		C42.921,68.256,41.914,68.256,40.747,68.256z"/>
	<path fill="#21AECF" d="M41.313,97.111c-5.58,0-10.897-0.915-15.805-2.719c-4.918-1.813-9.28-4.564-12.966-8.176
		c-3.687-3.574-6.626-8.09-8.737-13.424C1.678,67.457,0.6,61.18,0.6,54.134c0-7.014,1.116-13.29,3.317-18.655
		c2.202-5.373,5.192-9.917,8.888-13.505c0.399-0.383,0.808-0.756,1.223-1.12L25.544,32.37c-0.929,0.685-1.755,1.392-2.518,2.155
		c-2.179,2.101-3.879,4.711-5.193,7.978c-1.257,3.086-1.895,6.719-1.895,10.797c0,3.957,0.584,7.558,1.738,10.701
		c1.102,3.077,2.734,5.753,4.852,7.95c2.172,2.171,4.746,3.843,7.653,4.975c2.976,1.082,6.312,1.629,9.924,1.629
		c4.25,0,7.821-0.283,10.615-0.842c2.653-0.529,4.814-1.102,6.25-1.652c0.236-0.096,0.385-0.314,0.385-0.561v-11.32l17.081,17.081
		c-1.256,1.82-2.644,3.486-4.127,4.956c-3.613,3.612-7.938,6.362-12.853,8.175C52.477,96.196,47.045,97.111,41.313,97.111z"/>
</g>
<path fill="#4BBEB5" d="M108,21.353c0-3.624-1.133-6.38-3.438-8.231c-2.301-1.887-4.908-2.831-7.816-2.831
	c-2.869,0-5.477,0.944-7.779,2.831c-2.305,1.852-3.436,4.607-3.436,8.231c0,3.588,1.131,6.346,3.436,8.195
	c2.303,1.851,4.91,2.795,7.779,2.795c2.908,0,5.516-0.946,7.816-2.795C106.867,27.698,108,24.943,108,21.353L108,21.353z"/>
<g>
	<path fill="#1CA3C9" d="M41.312,97.111c-5.58,0-10.897-0.915-15.805-2.719c-4.918-1.813-9.28-4.564-12.966-8.176
		c-3.687-3.574-6.626-8.09-8.737-13.424C1.678,67.457,0.6,61.18,0.6,54.134c0-7.014,1.116-13.29,3.317-18.655
		c0.785-1.914,1.692-3.762,2.701-5.498l11.62,11.62c-0.139,0.294-0.278,0.59-0.404,0.901c-1.257,3.087-1.895,6.72-1.895,10.798
		c0,3.957,0.584,7.558,1.738,10.701c1.102,3.077,2.734,5.753,4.852,7.95c2.173,2.171,4.747,3.843,7.653,4.975
		c2.976,1.082,6.312,1.629,9.924,1.629c4.25,0,7.822-0.283,10.615-0.842c1.093-0.218,2.109-0.445,3.023-0.676l12.547,12.613
		c-2.685,1.975-5.655,3.568-8.835,4.741C52.477,96.196,47.045,97.111,41.312,97.111z"/>
	<path fill="#1CA3C9" d="M40.747,68.256c-2.075,0-3.938-0.352-5.538-1.046c-1.574-0.75-2.849-1.745-3.89-3.036
		c-1.042-1.256-1.842-2.824-2.384-4.664c-0.542-1.844-0.806-3.876-0.806-6.212c0-0.593,0.019-1.17,0.058-1.748l16.585,16.585
		c-0.349,0.04-0.694,0.067-1.032,0.083C42.922,68.256,41.914,68.256,40.747,68.256z"/>
</g>
</svg>
