<?xml version="1.0" encoding="utf-8"?>
<!-- Generator: Adobe Illustrator 19.2.1, SVG Export Plug-In . SVG Version: 6.00 Build 0)  -->
<svg version="1.1" id="Calque_1" xmlns="http://www.w3.org/2000/svg" xmlns:xlink="http://www.w3.org/1999/xlink" x="0px" y="0px"
	 width="101.1px" height="27.3px" viewBox="0 0 101.1 27.3" style="enable-background:new 0 0 101.1 27.3;" xml:space="preserve">
<style type="text/css">
	.st0{fill:#0F0D0E;}
	.st1{opacity:0.7;}
</style>
<g>
	<path class="st0" d="M19.5,11.7H11c-0.2,0-0.4,0.2-0.4,0.4v4.2c0,0.2,0.2,0.4,0.4,0.4h3.3v5.2c0,0-0.7,0.3-2.8,0.3
		c-2.4,0-5.8-0.9-5.8-8.3c0-7.5,3.5-8.4,6.8-8.4c2.9,0,4.1,0.5,4.9,0.7c0.2,0.1,0.5-0.2,0.5-0.4l0.9-4c0-0.1,0-0.2-0.2-0.3
		C18.4,1.1,16.4,0,11.5,0C5.8,0,0,2.4,0,14c0,11.6,6.7,13.3,12.3,13.3c4.6,0,7.5-2,7.5-2c0.1-0.1,0.1-0.2,0.1-0.3v-13
		C19.9,11.9,19.7,11.7,19.5,11.7z"/>
	<path class="st0" d="M62.9,1h-4.8c-0.2,0-0.4,0.2-0.4,0.4c0,0,0,9.2,0,9.2h-7.5V1.4C50.2,1.2,50,1,49.8,1H45
		c-0.2,0-0.4,0.2-0.4,0.4v25c0,0.2,0.2,0.4,0.4,0.4h4.8c0.2,0,0.4-0.2,0.4-0.4V15.7h7.5c0,0,0,10.7,0,10.7c0,0.2,0.2,0.4,0.4,0.4
		h4.8c0.2,0,0.4-0.2,0.4-0.4v-25C63.3,1.2,63.1,1,62.9,1z"/>
	<ellipse class="st0" cx="25.4" cy="4.7" rx="3.1" ry="3.1"/>
	<path class="st0" d="M27.8,9.2H23c-0.2,0-0.4,0.2-0.4,0.4c0,0,0,13.9,0,16.6c0,0.5,0.3,0.6,0.7,0.6c0,0,2,0,4.3,0
		c0.5,0,0.6-0.2,0.6-0.6c0-0.9,0-4.4,0-5c0-0.6,0-11.6,0-11.6C28.2,9.4,28,9.2,27.8,9.2z"/>
	<path class="st0" d="M81.4,9.2h-4.7c-0.2,0-0.4,0.2-0.4,0.4v12.3c0,0-1.2,0.9-2.9,0.9c-1.7,0-2.2-0.8-2.2-2.5c0-1.7,0-10.7,0-10.7
		c0-0.2-0.2-0.4-0.4-0.4H66c-0.2,0-0.4,0.2-0.4,0.4c0,0,0,6.5,0,11.5c0,5,2.8,6.2,6.6,6.2c3.1,0,5.7-1.7,5.7-1.7s0.1,0.9,0.2,1
		c0.1,0.1,0.2,0.2,0.3,0.2l3.1,0c0.2,0,0.4-0.2,0.4-0.4l0-16.8C81.8,9.4,81.7,9.2,81.4,9.2z"/>
	<path class="st0" d="M94.4,8.7c-2.7,0-4.5,1.2-4.5,1.2V1.4c0-0.2-0.2-0.4-0.4-0.4h-4.8c-0.2,0-0.4,0.2-0.4,0.4v25
		c0,0.2,0.2,0.4,0.4,0.4c0,0,3.3,0,3.3,0c0.1,0,0.3-0.1,0.3-0.2c0.1-0.1,0.2-1.2,0.2-1.2s2,1.9,5.7,1.9c4.4,0,6.9-2.2,6.9-9.9
		C101.1,9.7,97.1,8.7,94.4,8.7z M92.5,22.8c-1.6-0.1-2.8-0.8-2.8-0.8V14c0,0,1.1-0.7,2.5-0.8c1.7-0.2,3.4,0.4,3.4,4.4
		C95.6,22,94.8,22.8,92.5,22.8z"/>
	<path class="st0" d="M42,22.7c-0.2,0-0.7,0.1-1.3,0.1c-1.8,0-2.4-0.8-2.4-1.9c0-1.1,0-7,0-7h3.6c0.2,0,0.4-0.2,0.4-0.4V9.6
		c0-0.2-0.2-0.4-0.4-0.4h-3.6c0,0,0-4.7,0-4.7c0-0.2-0.1-0.3-0.3-0.3h-4.9c-0.2,0-0.3,0.1-0.3,0.3v4.9c0,0-2.5,0.6-2.6,0.6
		c-0.2,0-0.3,0.2-0.3,0.4v3.1c0,0.2,0.2,0.4,0.4,0.4h2.5c0,0,0,3.2,0,7.4c0,5.5,3.9,6,6.5,6c1.2,0,2.6-0.4,2.8-0.5
		c0.1-0.1,0.2-0.2,0.2-0.4l0-3.4C42.4,22.9,42.2,22.7,42,22.7z"/>
</g>
</svg>
