<?xml version="1.0" encoding="utf-8"?>
<!-- Generator: Adobe Illustrator 19.2.1, SVG Export Plug-In . SVG Version: 6.00 Build 0)  -->
<svg version="1.1" id="Calque_1" xmlns="http://www.w3.org/2000/svg" xmlns:xlink="http://www.w3.org/1999/xlink" x="0px" y="0px"
	 width="49.3px" height="49.3px" viewBox="0 0 49.3 49.3" style="enable-background:new 0 0 49.3 49.3;" xml:space="preserve">
<style type="text/css">
	.st0{fill:#0F0D0E;}
	.st1{opacity:0.7;}
</style>
<g>
	<path class="st0" d="M3.5,24.6c0,8.4,4.9,15.6,11.9,19L5.3,16C4.2,18.7,3.5,21.6,3.5,24.6z"/>
	<path class="st0" d="M38.9,23.6c0-2.6-0.9-4.4-1.7-5.8c-1.1-1.7-2.1-3.2-2.1-5c0-1.9,1.5-3.8,3.5-3.8c0.1,0,0.2,0,0.3,0
		c-3.8-3.4-8.8-5.5-14.3-5.5C17.3,3.5,10.8,7.3,7,13c0.5,0,1,0,1.4,0c2.2,0,5.6-0.3,5.6-0.3c1.1-0.1,1.3,1.6,0.1,1.7
		c0,0-1.1,0.1-2.4,0.2l7.7,22.9L24,23.8l-3.3-9c-1.1-0.1-2.2-0.2-2.2-0.2c-1.1-0.1-1-1.8,0.1-1.7c0,0,3.5,0.3,5.6,0.3
		c2.2,0,5.6-0.3,5.6-0.3c1.1-0.1,1.3,1.6,0.1,1.7c0,0-1.1,0.1-2.4,0.2l7.6,22.7l2.1-7C38.2,27.5,38.9,25.4,38.9,23.6z"/>
	<path class="st0" d="M25,26.5l-6.3,18.4c1.9,0.6,3.9,0.9,6,0.9c2.5,0,4.8-0.4,7-1.2c-0.1-0.1-0.1-0.2-0.2-0.3L25,26.5z"/>
	<path class="st0" d="M43.2,14.5c0.1,0.7,0.1,1.4,0.1,2.2c0,2.1-0.4,4.6-1.6,7.6l-6.5,18.7c6.3-3.7,10.5-10.5,10.5-18.3
		C45.8,21,44.8,17.5,43.2,14.5z"/>
	<path class="st0" d="M24.6,0C11.1,0,0,11.1,0,24.6c0,13.6,11.1,24.6,24.6,24.6c13.6,0,24.6-11.1,24.6-24.6C49.3,11.1,38.2,0,24.6,0
		z M24.6,48.2c-13,0-23.5-10.5-23.5-23.5c0-13,10.5-23.5,23.5-23.5c13,0,23.5,10.5,23.5,23.5C48.2,37.6,37.6,48.2,24.6,48.2z"/>
</g>
</svg>
