<?xml version="1.0" encoding="utf-8"?>
<!-- Generator: Adobe Illustrator 19.2.1, SVG Export Plug-In . SVG Version: 6.00 Build 0)  -->
<svg version="1.1" id="Calque_1" xmlns="http://www.w3.org/2000/svg" xmlns:xlink="http://www.w3.org/1999/xlink" x="0px" y="0px"
	 width="98.4px" height="38.5px" viewBox="0 0 98.4 38.5" style="enable-background:new 0 0 98.4 38.5;" xml:space="preserve">
<style type="text/css">
	.st0{fill:#0F0D0E;}
	.st1{opacity:0.7;}
</style>
<g>
	<polygon class="st1" points="82.7,10.7 87.3,6.1 98.4,6.1 88.3,16.3 	"/>
	<path d="M81.6,19.2l6.6-6.6l-1.9-1.9L74.2,22.9V0h-2.6v25.5l-6.7,6.7c-4.5,4.5-11.5,4.7-16.3,0.9l0,0l19.1-19.1l0,0
		c-0.3-0.3-0.6-0.7-0.9-1c-2.9-2.9-6.7-4.4-10.5-4.4h0c-3.8,0-7.6,1.5-10.5,4.4c-5.5,5.5-5.8,14.2-0.9,20l-1.7,1.7
		c-0.7,0.7-1.5,1-2.5,1c-0.9,0-1.8-0.4-2.5-1c-0.7-0.7-1-1.6-1-2.5h0V0h-2.6v32.3h0c0,1,0.2,2,0.7,2.9c-0.6,0.4-1.3,0.6-2,0.6
		c-0.9,0-1.8-0.4-2.5-1c-0.7-0.7-1-1.6-1-2.5l0-1.3l0-7.4c0-8.2-6.7-14.9-14.9-14.9C6.7,8.7,0,15.4,0,23.6c0,8.2,6.7,14.9,14.9,14.9
		c4.1,0,7.7-1.6,10.4-4.3l-1.9-1.9c-2.2,2.2-5.2,3.5-8.6,3.5c-6.7,0-12.2-5.5-12.2-12.2s5.5-12.2,12.2-12.2
		c6.7,0,12.2,5.5,12.2,12.2v3.5l0,4l0,1v0.3c0,1.6,0.6,3.1,1.8,4.3c2.2,2.2,5.6,2.4,8,0.5c2.4,1.8,5.8,1.7,8-0.5l1.7-1.7
		c5.8,4.9,14.6,4.6,20-0.9l4.9-4.9v9.2h2.6V26.6l5.3-5.3c5.5,1.2,9.7,6.1,9.7,12v5.1h2.6v-5.1C91.9,26.7,87.6,21.1,81.6,19.2z
		 M47.5,14.9c4.5-4.5,11.5-4.7,16.3-0.9L46.7,31.3C42.8,26.5,43.1,19.4,47.5,14.9z"/>
</g>
</svg>
