<?xml version="1.0" encoding="utf-8"?>
<!-- Generator: Adobe Illustrator 19.2.1, SVG Export Plug-In . SVG Version: 6.00 Build 0)  -->
<svg version="1.1" id="Calque_1" xmlns="http://www.w3.org/2000/svg" xmlns:xlink="http://www.w3.org/1999/xlink" x="0px" y="0px"
	 width="77.1px" height="58.7px" viewBox="0 0 77.1 58.7" style="enable-background:new 0 0 77.1 58.7;" xml:space="preserve">
<style type="text/css">
	.st0{fill:#0F0D0E;}
	.st1{opacity:0.7;}
</style>
<g>
	<polygon class="st0" points="5.1,13.8 0,13.8 0,46.6 13.6,46.6 13.6,41.9 5.1,41.9 	"/>
	<path class="st0" d="M19.7,13.8l-5.2,32.7h4.7l0.9-5.9h6.3l0.9,5.9h5.2l-5.2-32.7H19.7z M20.7,36.2l2.5-16.5l2.5,16.5H20.7z"/>
	<path class="st0" d="M50.7,38.8v-2.7c0-3.5-1.1-5.9-3.8-7c2.3-1.1,3.3-3.2,3.3-6.6v-1.2c0-5-2.3-7.5-7.6-7.5h-7.8v32.7h8.1
		C48.1,46.6,50.7,43.8,50.7,38.8z M40,18.5h2.5c1.8,0,2.6,1,2.6,3.4v1.8c0,2.6-1.2,3.5-3.1,3.5h-2V18.5z M40,31.8h2.3
		c2.3,0,3.3,0.9,3.3,4v2.8c0,2.4-0.9,3.2-2.7,3.2H40V31.8z"/>
	<path class="st0" d="M59.2,13.1c0-0.2,0-5,0-5c0-0.4,0.3-0.8,0.8-0.8h0.4c0.4,0,0.8-0.3,0.8-0.8v-3c0-0.2-0.1-0.4-0.2-0.5
		c-0.1-0.2-0.3-0.3-0.6-0.3c-0.1,0-3.6,0-5.3,0c-2,0-2.6,0.8-2.6,2.4v8.4c0,12.2,13.2,13.9,13.2,22.7c0,3.1-1.3,4.2-3.5,4.2h-9.7
		v6.2h9.8c6.6,0,10-3.9,10-10.8C72.3,23.5,59.2,21.9,59.2,13.1z"/>
	<circle class="st0" cx="67.7" cy="4.1" r="4.1"/>
	<ellipse class="st0" cx="75.2" cy="7.7" rx="1.9" ry="1.8"/>
	<circle class="st0" cx="71" cy="10.7" r="0.8"/>
	<circle class="st0" cx="75.9" cy="13.1" r="0.7"/>
	<path class="st0" d="M42.9,54.3c-0.6,0-1,0.3-1.2,0.7h0v-2.1h-0.3v3.7c0,0.2,0,0.5,0,0.7h0.3l0-0.6h0c0.3,0.5,0.7,0.6,1.2,0.6
		c0.7,0,1.5-0.5,1.5-1.6C44.3,55,43.8,54.3,42.9,54.3z M42.8,57.1c-0.6,0-1-0.4-1.1-0.8c0-0.1,0-0.2,0-0.2v-0.5c0-0.1,0-0.2,0-0.3
		c0.2-0.5,0.6-0.8,1.1-0.8c0.7,0,1.2,0.6,1.2,1.3C44,56.6,43.6,57.1,42.8,57.1z"/>
	<path class="st0" d="M46.1,56.3c-0.1,0.2-0.2,0.5-0.2,0.6h0c-0.1-0.2-0.2-0.4-0.2-0.6l-0.9-2h-0.3l1.2,2.7c0,0.1,0,0.1,0,0.1
		c0,0,0,0.1,0,0.1c-0.2,0.4-0.4,0.7-0.6,0.8c-0.2,0.2-0.4,0.2-0.5,0.3l0.1,0.3c0.1,0,0.3-0.1,0.5-0.3c0.4-0.3,0.7-0.7,1.1-1.7l1-2.4
		h-0.3L46.1,56.3z"/>
	<path class="st0" d="M69.9,51.9l2.5-2.5h-2.7l-1.1,1.1L69,51l-2.5,2.5v-5.6h-0.6v6.2l-1.6,1.6c-1.1,1.1-2.8,1.2-4,0.2l0,0l4.6-4.6
		h0c-0.1-0.1-0.1-0.2-0.2-0.2c-0.7-0.7-1.6-1.1-2.6-1.1h0c-0.9,0-1.9,0.4-2.6,1.1c-1.3,1.3-1.4,3.5-0.2,4.9l-0.4,0.4
		c-0.2,0.2-0.4,0.2-0.6,0.2c-0.2,0-0.4-0.1-0.6-0.2c-0.2-0.2-0.2-0.4-0.2-0.6h0v-7.9h-0.6v7.9c0,0.2,0.1,0.5,0.2,0.7
		c-0.1,0.1-0.3,0.2-0.5,0.2c-0.2,0-0.4-0.1-0.6-0.2c-0.2-0.2-0.2-0.4-0.2-0.6v-0.3l0-1.8c0-2-1.6-3.6-3.6-3.6c-2,0-3.6,1.6-3.6,3.6
		c0,2,1.6,3.6,3.6,3.6c1,0,1.9-0.4,2.5-1l-0.5-0.5c-0.5,0.5-1.3,0.9-2.1,0.9c-1.6,0-3-1.3-3-3c0-1.6,1.3-3,3-3s3,1.3,3,3v0.8v1v0.2
		v0.1c0,0.4,0.1,0.8,0.4,1.1c0.5,0.5,1.4,0.6,2,0.1c0.6,0.4,1.4,0.4,2-0.1l0.4-0.4c1.4,1.2,3.5,1.1,4.9-0.2l1.2-1.2v2.2h0.6v-2.9
		l1.3-1.3c1.4,0.3,2.4,1.5,2.4,2.9v1.2h0.6V56c0-1.6-1-3-2.5-3.4l1.2-1.2L69.9,51.9z M60,51.6c1.1-1.1,2.8-1.2,4-0.2l-4.2,4.2
		C58.8,54.4,58.9,52.7,60,51.6z"/>
</g>
</svg>
