<?xml version="1.0" standalone="no"?>
<!DOCTYPE svg PUBLIC "-//W3C//DTD SVG 1.1//EN" "http://www.w3.org/Graphics/SVG/1.1/DTD/svg11.dtd" >
<svg xmlns="http://www.w3.org/2000/svg">
<metadata>Generated by IcoMoon</metadata>
<defs>
<font id="social-icons" horiz-adv-x="512">
<font-face units-per-em="512" ascent="480" descent="-32" />
<missing-glyph horiz-adv-x="512" />
<glyph unicode="&#x20;" horiz-adv-x="256" d="" />
<glyph unicode="&#xe046;" glyph-name="pinterest" d="M143.36-28.587c0-3.413 5.12-5.12 6.827-1.707 3.413 3.413 40.96 49.493 52.906 95.573 3.413 13.654 20.48 80.214 20.48 80.214 10.24-18.774 39.254-35.84 71.68-35.84 93.866 0 158.72 85.334 158.72 201.387 0 87.040-73.387 168.96-186.026 168.96-139.946 0-209.92-100.693-209.92-184.32 0-51.2 18.773-95.574 59.733-112.64 6.826-3.413 13.654 0 15.36 6.827 1.707 5.12 5.12 18.774 6.827 23.894 1.707 6.827 1.707 10.24-3.413 17.066-11.947 13.654-18.773 32.427-18.773 58.027 0 75.093 56.32 141.654 145.067 141.654 78.507 0 122.88-47.787 122.88-112.64 0-85.334-37.546-157.013-93.867-157.013-30.72 0-54.613 25.6-46.080 56.32 8.534 37.547 25.6 76.8 25.6 104.106 0 23.893-13.654 44.373-39.254 44.373-30.72 0-56.32-32.426-56.32-76.8 0-27.307 10.24-46.080 10.24-46.080s-32.427-136.534-37.547-160.426c-15.36-47.786-6.827-105.813-5.12-110.933z" />
<glyph unicode="&#xe600;" glyph-name="social_facebook" d="M302.080-32h-92.16c-6.827 0-11.946 5.12-11.946 11.947v201.387h-80.213c-6.826 0-11.947 5.12-11.947 11.947v92.16c0 6.827 5.12 11.946 11.947 11.946h80.213v25.6c0 8.534 0 18.774 1.707 29.014s3.413 20.48 6.827 30.72c3.413 10.24 6.827 20.48 11.947 29.013 5.12 10.24 10.24 18.774 17.066 25.6s13.654 11.946 20.48 17.066c6.827 5.12 13.654 8.534 22.187 13.654 8.534 3.413 17.067 6.827 25.6 8.534 8.534 3.413 17.067 3.413 27.307 3.413h63.147c6.827 0 11.947-5.12 11.947-11.947v-92.16c0-6.827-5.12-11.947-11.947-11.947h-63.147c-1.707 0-3.413 0-6.827-1.707-1.707-1.707-5.12-1.707-6.827-3.413s-1.707-1.707-3.413-3.413c0-1.707-1.707-3.413-1.707-6.827v-52.906h80.214c6.827 0 11.947-5.12 11.947-11.947v-92.16c0-6.827-5.12-11.947-11.947-11.947h-80.214v-201.387c1.707-5.12-3.413-10.24-10.24-10.24z" />
<glyph unicode="&#xe601;" glyph-name="social_flickr" d="M385.707 97.707c-17.067 0-34.134 3.413-49.493 10.24s-29.014 15.36-40.96 27.307c-11.947 11.947-20.48 25.6-27.307 40.96s-10.24 30.72-10.24 47.786c0 17.066 3.413 34.134 10.24 49.493s15.36 29.013 27.307 39.253c11.947 11.947 23.894 20.48 39.254 27.307 30.72 13.654 68.267 13.654 98.986 0 15.36-6.827 29.014-15.36 39.254-27.307 11.947-11.946 20.48-23.893 27.307-39.253 8.534-15.36 11.947-32.427 11.947-49.493s-3.413-32.426-10.24-47.786c-6.827-15.36-15.36-29.014-27.307-40.96s-25.6-20.48-40.96-27.307c-13.654-6.827-29.014-10.24-47.786-10.24zM126.293 97.707c-69.974 0-126.293 56.32-126.293 126.293s56.32 126.293 126.293 126.293c69.974 0 126.293-56.32 126.293-126.293s-56.32-126.293-126.293-126.293zM126.293 329.813c-58.026 0-105.814-47.786-105.814-105.813s47.786-105.813 105.814-105.813c58.026 0 105.814 47.786 105.814 105.814 1.707 58.027-46.080 105.814-105.814 105.814z" />
<glyph unicode="&#xe602;" glyph-name="social_googleplus" d="M512 360.534h-85.334v85.334h-34.133v-85.334h-85.334v-34.134h85.334v-85.333h34.134v85.334h85.333zM221.867 186.454c-11.946 8.534-34.133 29.014-34.133 40.96 0 13.654 3.413 20.48 25.6 37.547s37.547 40.96 37.547 69.974c0 34.133-15.36 76.8-42.666 76.8h42.666l29.014 34.133c0 0-98.987 0-133.12 0-59.733 0-116.053-51.2-116.053-104.106s40.96-98.987 100.693-98.987c5.12 0 8.534-1.707 11.947-1.707-3.413-6.827-6.827-17.066-6.827-25.6 0-15.36 8.534-27.306 18.774-37.546-6.827 0-15.36 0-22.186 0-73.386 0-129.707-47.786-129.707-95.573s61.44-78.507 134.827-78.507c83.626 0 129.706 47.786 129.706 95.574 0 39.254-11.947 61.44-46.080 87.040zM150.186 253.013c-34.133 1.707-66.56 37.547-71.68 83.626-5.12 44.374 17.067 80.214 51.2 78.507s66.56-37.546 71.68-81.92c6.827-46.080-17.066-81.92-51.2-80.214zM136.534 24.32c-51.2 0-87.040 32.426-87.040 71.68 0 37.546 46.080 69.974 95.574 69.974 11.947 0 22.186-1.707 32.427-5.12 27.306-18.774 47.786-30.72 52.906-52.906 1.707-5.12 1.707-8.534 1.707-13.654 1.707-39.254-23.893-69.974-95.573-69.974z" />
<glyph unicode="&#xe603;" glyph-name="social_linkedin" d="M512 169.387v-189.44h-109.226v175.786c0 44.373-15.36 75.094-56.32 75.094-30.72 0-47.786-20.48-56.32-40.96-3.413-6.827-3.413-17.067-3.413-27.306v-184.32h-109.226c0 0 1.707 298.666 0 329.387h109.226v-46.080c0 0 0 0 0-1.707v0 1.707c15.36 22.186 40.96 54.613 98.986 54.613 71.68 1.707 126.293-46.080 126.293-146.774zM61.44 468.053c-37.547 0-61.44-23.894-61.44-56.32s23.893-56.32 61.44-56.32v0c37.547 0 61.44 25.6 61.44 56.32 0 32.426-23.894 56.32-61.44 56.32zM6.827-20.053h109.227v329.387h-109.227v-329.387z" />
<glyph unicode="&#xe604;" glyph-name="social_skype" d="M489.813 186.454c1.707 11.947 3.413 23.894 3.413 37.547 0 131.413-105.813 237.226-237.226 237.226-11.947 0-25.6-1.706-37.547-3.413-22.186 13.654-47.786 22.187-75.094 22.187-78.507 0-143.36-64.853-143.36-143.36 0-27.307 8.534-52.906 22.186-75.094-1.706-11.947-3.413-23.893-3.413-37.546 0-131.413 105.814-237.226 237.226-237.226 11.947 0 25.6 1.707 37.546 3.413 22.187-13.654 47.786-22.187 75.094-22.187 78.507 0 143.36 64.853 143.36 143.36 0 27.307-8.534 52.906-22.187 75.094zM368.64 116.48c-10.24-13.654-25.6-25.6-44.373-34.134s-42.666-11.947-68.267-11.947c-32.427 0-58.026 5.12-78.507 17.067-15.36 8.534-27.306 18.774-35.84 32.426s-13.653 27.306-13.653 39.253c0 6.827 3.414 13.654 8.533 18.774s13.654 8.534 22.186 8.534c6.827 0 13.654-1.707 18.774-6.827 5.12-3.413 8.534-10.24 11.947-18.774s8.534-17.067 13.654-23.894c5.12-6.827 11.947-11.947 18.774-15.36 8.534-3.413 18.774-6.827 34.133-6.827 18.774 0 34.134 3.413 46.080 11.947s17.067 18.774 17.067 30.72c0 10.24-3.413 17.067-8.534 23.894-6.827 6.827-13.654 10.24-23.894 13.654s-23.894 6.827-40.96 10.24c-22.186 5.12-42.667 10.24-58.026 17.067s-27.306 15.36-37.547 27.306c-8.534 11.946-13.654 25.6-13.654 44.374 0 17.066 5.12 30.72 15.36 44.373s23.893 22.187 42.666 29.014c15.36 6.827 35.84 10.24 61.44 10.24 20.48 0 37.546-1.707 51.2-6.827s25.6-10.24 35.84-18.774c10.24-6.827 17.067-15.36 20.48-23.894 5.12-8.534 6.827-17.066 6.827-23.893s-3.413-13.654-8.534-20.48c-5.12-5.12-11.947-8.534-20.48-8.534-6.827 0-13.654 1.707-17.067 5.12s-8.534 8.534-11.947 17.066c-8.534 11.947-15.36 20.48-22.187 27.306-8.534 6.827-20.48 8.534-39.254 8.534-17.066 0-29.013-3.413-39.254-10.24s-15.36-15.36-15.36-23.893c0-5.12 1.707-10.24 5.12-15.36 3.413-3.413 8.534-8.534 13.654-10.24 6.827-3.413 11.947-5.12 18.774-6.827s17.066-5.12 30.72-8.534c18.774-3.413 34.134-8.534 49.493-13.654s27.306-10.24 37.546-17.066c10.24-6.826 18.774-15.36 23.894-25.6s8.534-23.894 8.534-37.546c0-17.067-5.12-34.133-15.36-47.786z" />
<glyph unicode="&#xe605;" glyph-name="social_twitter" d="M460.8 326.4c0-3.413 0-8.534 0-11.946 0-138.24-105.814-298.666-298.666-298.666-59.733 0-114.347 15.36-162.133 47.786 8.534 0 15.36 0 23.893 0 51.2 0 93.867 15.36 129.707 42.666-47.786 0-87.040 30.72-98.987 75.094 8.534 0 11.947 0 20.48 0s20.48 0 27.306 3.413c-47.786 8.534-81.92 51.2-81.92 102.4v0c15.36-8.534 30.72-11.947 46.080-11.947-27.306 20.48-47.786 51.2-47.786 87.040 0 20.48 3.413 35.84 15.36 51.2 51.2-63.147 129.707-105.813 216.746-110.933 0 8.534-3.413 15.36-3.413 23.894 0 59.733 47.787 105.813 105.814 105.813 30.72 0 59.733-11.947 78.507-30.72 23.894 3.413 47.786 11.947 66.56 23.894-8.534-23.894-23.894-42.666-47.786-59.733 20.48 3.413 42.666 8.534 59.733 15.36-13.654-23.894-29.014-39.254-49.493-54.613v0z" />
<glyph unicode="&#xe606;" glyph-name="social_windows" d="M508.587 235.946v244.054l-281.6-40.96v-203.094zM208.214 435.627l-204.8-29.014v-170.667h204.8zM3.413 215.466v-172.374l204.8-30.72v203.094zM226.987 8.96l281.6-40.96v247.466h-281.6z" />
<glyph unicode="&#xe607;" glyph-name="social_wordpress" d="M0 224c0-141.654 114.347-256 256-256s256 114.346 256 256c0 141.654-114.346 256-256 256s-256-114.346-256-256zM20.48 224c0 34.134 6.826 66.56 20.48 95.573l112.64-308.906c-80.213 39.254-133.12 119.466-133.12 213.333zM256-11.52c-23.893 0-46.080 3.413-66.56 10.24l71.68 206.506 73.387-199.68c0-1.707 1.707-1.707 1.707-3.413-25.6-10.24-52.906-13.654-80.214-13.654zM447.147 229.12c13.654 34.134 18.774 61.44 18.774 85.334 0 8.534 0 17.066-1.707 23.893 18.774-34.133 29.014-71.68 29.014-112.64 0-87.040-47.786-163.84-117.76-204.8l71.68 208.214zM395.947 300.8c8.534-15.36 18.774-35.84 18.774-64.853 0-20.48-6.827-46.080-18.774-76.8l-23.894-78.507-85.334 254.293c13.654 0 27.306 1.707 27.306 1.707 11.947 1.707 11.947 20.48-1.707 18.774 0 0-37.546-3.413-63.147-3.413-23.893 0-61.44 3.413-61.44 3.413-11.947 0-13.654-18.774-1.707-18.774 0 0 11.947-1.707 25.6-1.707l37.547-100.694-51.2-155.306-85.334 256c13.653 0 27.307 1.707 27.307 1.707 10.24 1.707 10.24 20.48-3.413 20.48 0 0-37.547-3.413-63.147-3.413-5.12 0-10.24 0-15.36 0 42.666 64.853 116.053 105.813 197.974 105.813 61.44 0 117.76-23.894 158.72-61.44-1.707 0-1.707 0-3.413 0-23.894 0-39.254-20.48-39.254-42.666 0-18.774 11.947-34.134 23.894-54.613z" />
<glyph unicode="&#xe608;" glyph-name="social_youtube" d="M402.774 106.24h-27.307v17.067c0 6.827 5.12 13.654 13.654 13.654h1.707c6.827 0 13.654-5.12 13.654-13.654l-1.707-17.067zM298.666 140.373c-6.827 0-13.654-5.12-13.654-10.24v-80.214c0-5.12 5.12-10.24 13.654-10.24 6.827 0 13.654 5.12 13.654 10.24v80.214c-1.707 5.12-6.827 10.24-13.654 10.24zM469.334 184.747v-150.186c0-35.84-30.72-66.56-69.974-66.56h-286.72c-39.254 0-69.974 29.014-69.974 66.56v150.187c0 35.84 30.72 66.56 69.974 66.56h286.72c39.254 0 69.974-30.72 69.974-66.56zM131.413 17.493v158.72h35.84v23.894h-95.573v-23.894h29.013v-158.72h30.72zM238.934 152.32h-29.013v-85.334c0-11.947 0-18.774 0-20.48-1.707-6.827-13.654-13.654-17.066 0 0 1.707 0 8.534 0 20.48v85.334h-30.72v-83.627c0-13.654 0-22.187 0-27.307 0-8.534 0-17.067 6.827-22.187 13.654-10.24 39.254 1.707 46.080 15.36v-17.067h23.893v134.827zM332.8 55.040v69.974c0 27.307-20.48 42.666-47.786 20.48v52.906h-29.014v-179.2h23.894l1.707 11.947c32.426-29.014 51.2-10.24 51.2 23.894zM426.666 65.28h-22.187c0-1.707 0-1.707 0-3.413v-11.947c0-6.827-5.12-11.947-11.947-11.947h-5.12c-6.827 0-11.947 5.12-11.947 11.947v32.426h51.2v18.774c0 13.654 0 27.306-1.707 35.84-3.413 25.6-39.254 29.014-58.026 17.067-5.12-3.413-10.24-10.24-11.947-17.067s-3.413-17.067-3.413-30.72v-42.666c0-68.267 85.334-59.733 75.094 1.707zM312.32 293.974c1.707-3.413 3.413-6.827 6.827-8.534s6.827-3.413 11.947-3.413c5.12 0 8.534 1.707 11.947 3.413s6.827 5.12 8.534 10.24v-11.947h32.426v141.654h-25.6v-109.226c0-5.12-5.12-10.24-10.24-10.24s-10.24 5.12-10.24 10.24v109.226h-27.307v-95.573c0-11.947 0-20.48 0-23.893-1.707-5.12 0-8.534 1.707-11.947zM211.626 372.48c0 13.654 1.707 23.894 3.413 32.426 1.707 6.827 6.827 13.654 11.946 18.774s13.654 6.827 22.186 6.827c6.827 0 13.653-1.707 20.48-5.12 5.12-3.413 10.24-6.827 11.947-11.947 3.413-5.12 5.12-10.24 6.827-15.36 0-3.413 1.707-11.946 1.707-22.186v-35.84c0-13.654 0-22.187-1.707-29.014s-3.413-11.946-6.827-17.066c-3.413-5.12-6.827-8.534-11.947-11.947-5.12-1.707-11.947-3.413-18.774-3.413s-13.654 1.707-18.774 3.413c-5.12 1.707-8.534 5.12-11.947 10.24s-5.12 10.24-6.827 15.36c-1.707 6.827-1.707 15.36-1.707 27.306v37.547zM237.226 317.866c0-8.534 5.12-13.654 13.654-13.654 6.827 0 13.654 6.827 13.654 13.654v75.094c0 8.534-5.12 13.653-13.654 13.653-6.827 0-13.654-6.826-13.654-13.653v-75.094zM146.774 280.32h30.72v107.52l37.547 92.16h-34.133l-20.48-68.267-20.48 68.267h-34.133l39.254-92.16 1.707-107.52z" />
<glyph unicode="&#xe900;" glyph-name="envato" d="M88.746 85.76l136.534 300.373c-158.72-64.853-201.387-165.546-136.534-300.373zM373.76 413.44c-102.4-110.933-191.147-230.4-254.293-363.52 6.826-6.827 13.654-13.654 22.186-20.48 56.32-37.546 153.6-39.253 215.040 11.947 68.267 58.026 90.454 187.733 93.866 346.454 0 11.947 0 25.6 0 37.546 0 32.427-49.493 23.894-76.8-11.946z" />
<glyph unicode="&#xe901;" glyph-name="bitbucket" d="M256 480v0c-121.173 0-221.867-32.426-221.867-73.387 0-11.946 25.6-165.546 35.84-226.986 5.12-29.014 76.8-68.267 186.026-68.267v0c109.226 0 179.2 39.254 186.026 68.267 10.24 61.44 35.84 215.040 35.84 226.987-1.707 40.96-100.693 73.386-221.867 73.386v0zM256 162.56c-39.254 0-69.974 30.72-69.974 69.974s30.72 69.974 69.974 69.974 69.974-30.72 69.974-69.974c0-37.546-30.72-69.974-69.974-69.974v0zM256 384.427c-78.507 0-141.654 13.653-141.654 30.72s63.147 30.72 141.654 30.72 141.654-13.653 141.654-30.72c0-18.774-63.147-30.72-141.654-30.72v0zM416.426 119.894c-5.12 0-6.827-1.707-6.827-1.707s-54.613-44.373-151.893-44.373-151.893 44.373-151.893 44.373-5.12 1.707-6.826 1.707c-5.12 0-8.534-1.707-8.534-8.534v-1.707c8.534-46.080 15.36-78.507 15.36-83.626 5.12-32.426 71.68-58.026 150.186-58.026v0c78.507 0 143.36 25.6 150.187 58.026 0 5.12 6.827 37.546 15.36 83.626v1.707c1.707 5.12 0 8.534-5.12 8.534v0zM290.134 234.24c0-18.851-15.282-34.134-34.134-34.134s-34.133 15.282-34.133 34.133c0 18.852 15.282 34.133 34.133 34.133s34.134-15.282 34.134-34.133z" />
<glyph unicode="&#xe902;" glyph-name="disqus" d="M264.534-25.173c-61.44 0-116.053 22.187-158.72 59.733l-105.814-15.36 40.96 102.4c-13.654 30.72-22.186 66.56-22.186 102.4 0 136.533 110.933 249.173 247.466 249.173 134.827 0 245.76-112.64 245.76-249.173s-110.933-249.174-247.466-249.174zM399.36 224v0c0 71.68-51.2 122.88-138.24 122.88h-93.867v-249.173h92.16c88.746 1.707 139.947 54.613 139.947 126.293v0zM262.827 160.853h-27.306v126.293h27.306c40.96 0 66.56-23.893 66.56-63.147v0c1.707-40.96-25.6-63.147-66.56-63.147z" />
<glyph unicode="&#xe903;" glyph-name="amazon" d="M5.12 77.226c64.853-56.32 136.534-109.226 232.107-109.226 1.707 0 3.413 0 5.12 0 61.44 1.707 129.706 22.187 182.614 54.613v0c6.827 3.413 13.654 8.534 20.48 13.654 3.413 3.413 6.827 8.534 6.827 11.947 0 8.534-6.827 15.36-15.36 15.36-1.707 0-5.12 0-6.827-1.707-3.413-1.707-5.12-1.707-8.534-3.413l-3.413-1.707-5.12-1.707c-54.613-22.187-112.64-35.84-165.547-35.84-1.707 0-3.413 0-5.12 0-83.626 0-151.893 39.254-221.867 76.8-1.706 1.707-5.12 1.707-6.826 1.707-3.413 0-6.827-1.707-8.534-3.413-3.413 0-5.12-3.413-5.12-6.827 0-5.12 1.706-8.534 5.12-10.24zM512 96c0 5.12-1.707 10.24-3.413 11.947v0 0c-1.707 1.707-5.12 3.413-6.827 5.12-6.827 3.413-17.067 3.413-29.014 3.413-8.534 0-18.774 0-29.014-3.413v0l-15.36-5.12c-6.827-3.413-11.947-6.827-18.774-10.24-3.413-3.413-6.827-5.12-6.827-11.947 0-3.413 1.707-6.827 3.413-8.534s5.12-3.413 6.827-3.413c0 0 1.707 0 1.707 0v0 0c5.12 1.707 11.947 1.707 20.48 3.413 6.827 0 13.654 1.707 20.48 1.707 5.12 0 8.534 0 11.947-1.707 1.707 0 1.707 0 3.413-1.707 0 0 0 0 0 0s0-1.707 0-3.413c0-5.12-1.707-15.36-5.12-25.6s-6.827-20.48-8.534-25.6c0-1.707-1.707-3.413-1.707-5.12 0-3.413 1.707-5.12 3.413-8.534 1.707-1.707 5.12-3.413 6.827-3.413v0c3.413 0 6.827 1.707 8.534 3.413 25.6 22.187 34.134 58.026 34.134 78.507l3.413 10.24zM283.307 338.346c-15.36-1.707-32.427-1.707-47.786-5.12-25.6-3.413-51.2-8.534-73.387-18.774-40.96-17.067-69.974-52.906-69.974-105.813 0-66.56 42.666-100.693 97.28-100.693 18.773 0 32.427 1.707 46.080 5.12 22.187 6.827 39.253 18.774 61.44 42.666 11.947-17.067 15.36-25.6 37.546-42.666 5.12-1.707 11.947-1.707 15.36 1.707 13.654 11.947 37.546 32.426 49.493 42.666 5.12 5.12 5.12 11.947 1.707 17.067-13.654 15.36-25.6 29.014-25.6 59.733v102.4c0 42.667 3.413 81.92-29.014 112.64-25.6 22.186-66.56 30.72-97.28 30.72h-13.654c-58.026-3.413-119.466-29.013-131.413-98.986-3.413-10.24 3.413-13.654 6.826-13.654l63.146-8.534c6.827 1.707 10.24 6.827 11.947 11.947 5.12 25.6 25.6 37.546 47.786 39.253h5.12c13.654 0 29.014-5.12 35.84-17.066 8.534-13.654 8.534-32.427 8.534-47.787v-6.827zM271.36 203.52c-8.534-15.36-22.186-25.6-35.84-29.014-1.707 0-5.12-1.707-8.534-1.707-25.6 0-39.254 18.774-39.254 47.786 0 35.84 22.186 52.906 47.786 61.44 15.36 3.413 32.426 5.12 47.786 5.12v-13.654c0-27.306 1.707-47.786-11.947-69.974z" />
<glyph unicode="&#xe904;" glyph-name="github" d="M256 473.173c-141.654 0-256-114.346-256-256 0-112.64 73.386-208.214 175.786-242.346 13.654-1.707 17.066 5.12 17.066 11.947s0 22.187 0 44.373c-71.68-15.36-87.040 34.133-87.040 34.133-11.947 29.014-29.014 37.546-29.014 37.546-23.894 15.36 1.707 15.36 1.707 15.36 25.6-1.707 39.254-25.6 39.254-25.6 22.186-39.253 59.733-27.306 75.094-20.48 1.707 17.067 8.534 27.306 17.066 34.133-56.32 6.827-116.053 29.014-116.053 126.293 0 27.307 10.24 51.2 25.6 68.267-3.413 6.827-11.947 32.426 1.707 68.267 0 0 22.186 6.827 69.974-25.6 20.48 5.12 42.667 8.534 64.853 8.534s44.374-3.413 64.853-8.534c49.493 32.427 69.974 25.6 69.974 25.6 13.654-35.84 5.12-61.44 1.707-68.267 17.067-17.066 25.6-40.96 25.6-68.267 0-98.986-59.733-119.466-116.053-126.293 8.534-8.534 17.067-23.894 17.067-47.786 0-34.133 0-61.44 0-69.974 0-6.827 5.12-15.36 17.067-11.947 102.4 34.134 174.080 129.707 174.080 242.346 1.707 139.947-112.64 254.293-254.293 254.293z" />
<glyph unicode="&#xe905;" glyph-name="yandex" d="M390.827 480h-42.666c-3.413 0-6.827-1.707-6.827-5.12s-64.853-199.68-69.974-215.040c-3.413-11.947-13.654-52.907-17.066-63.147l-22.186 61.44c-5.12 17.066-58.026 162.133-59.733 168.96 0 3.413-1.707 6.827-8.534 6.827h-40.96c-3.413 0-6.826-5.12-5.12-6.827s76.8-204.8 107.52-283.307v-170.667c0-3.413 1.707-5.12 5.12-5.12h39.253c1.707 0 5.12 1.707 5.12 5.12v168.96c25.6 71.68 119.466 327.68 121.173 331.094 0 3.413 0 6.827-5.12 6.827z" />
<glyph unicode="&#xe906;" glyph-name="reddit" d="M228.694 302.506c0-14.138-11.462-25.6-25.6-25.6s-25.6 11.462-25.6 25.6c0 14.139 11.462 25.6 25.6 25.6s25.6-11.462 25.6-25.6zM336.214 302.506c0-14.138-11.462-25.6-25.6-25.6s-25.6 11.462-25.6 25.6c0 14.139 11.462 25.6 25.6 25.6s25.6-11.462 25.6-25.6zM348.16 445.866c0-18.773 15.36-34.133 34.133-34.133s34.134 15.36 34.134 34.133-15.36 34.134-34.134 34.134c-13.654 0-27.307-8.534-32.426-22.187l-69.974 17.067-29.013-83.626c-40.96 0-80.213-11.947-107.52-30.72-6.827 6.827-17.067 10.24-27.306 10.24-23.894 0-42.666-18.774-42.666-42.667 0-13.654 6.826-27.306 18.773-35.84 0-3.413-1.707-8.534-1.707-11.947 0-40.96 34.133-76.8 83.626-95.574-27.306-17.067-44.374-42.666-44.374-69.974 0-30.72 20.48-59.733 56.32-76.8v1.707c1.707-6.827 3.413-13.654 5.12-18.774h-13.654c-11.947 0-22.186-3.413-29.013-11.947-11.946-11.947-11.946-34.134-11.946-34.134v-6.827h233.813v6.827c0 1.707 0 23.894-13.654 37.546-6.827 6.827-15.36 10.24-27.307 10.24h-13.654c1.707 6.827 3.413 13.654 5.12 20.48l1.707-1.707c32.426 17.067 52.906 44.373 52.906 75.094 0 27.307-17.067 51.2-42.666 68.267 0 0 0 0 0 1.707 49.493 18.774 83.626 54.613 83.626 95.574 0 3.413 0 8.534-1.707 11.946 11.947 6.827 20.48 20.48 20.48 35.84 0 23.894-18.774 42.667-42.666 42.667-10.24 0-20.48-3.413-27.306-10.24-27.307 17.067-63.147 29.014-104.106 30.72l23.894 68.266 63.147-15.36zM382.293 466.346c11.947 0 20.48-10.24 20.48-20.48 0-11.946-10.24-20.48-20.48-20.48-11.947 0-20.48 10.24-20.48 20.48 0 11.947 8.534 20.48 20.48 20.48zM87.040 329.813c0 15.36 13.653 29.014 29.014 29.014 5.12 0 11.946-1.707 15.36-5.12-15.36-11.947-29.013-27.307-34.133-44.374-6.826 5.12-10.24 11.947-10.24 20.48zM317.44 179.627c1.707-1.707 3.413-1.707 5.12-3.413 0-121.173-13.654-196.267-66.56-196.267-58.026 0-64.853 92.16-66.56 197.974 1.707 0 1.707 0 3.413 1.707 18.774-5.12 40.96-8.534 63.147-8.534 22.187 1.707 42.666 3.413 61.44 8.534zM145.066 116.48c0 22.187 11.946 40.96 32.427 54.613 0-42.666 1.707-81.92 6.827-114.346-25.6 15.36-39.254 35.84-39.254 59.733zM158.72 2.134c5.12 5.12 11.946 6.827 18.773 6.827h18.774c5.12-11.947 11.947-20.48 20.48-27.307h-68.266c3.413 5.12 5.12 13.654 10.24 20.48zM332.8 8.96c6.827 0 13.654-1.707 17.067-6.827 5.12-6.827 8.534-15.36 8.534-20.48h-66.56c8.534 6.827 15.36 17.067 20.48 27.306h20.48zM365.226 116.48c0-22.187-13.654-44.373-37.546-58.026 5.12 32.426 6.827 71.68 8.534 110.933 17.067-13.654 29.014-32.426 29.014-52.906zM256 186.454c-83.626 0-150.186 42.666-150.186 97.28 0 52.906 68.266 97.28 150.186 97.28 83.626 0 150.187-42.666 150.187-97.28s-68.267-97.28-150.187-97.28zM395.947 358.827c15.36 0 29.014-13.654 29.014-29.014 0-8.534-3.413-17.067-10.24-22.187-6.827 17.067-18.774 32.427-34.134 46.080 3.413 3.413 10.24 5.12 15.36 5.12zM307.2 241.066c0 0-15.36-15.36-51.2-15.36s-49.493 15.36-49.493 15.36c-1.707 3.413-6.827 3.413-8.534 0-3.413-1.707-3.413-6.827 0-8.534 0 0 17.066-20.48 59.733-20.48s59.733 18.774 61.44 20.48c1.707 3.413 1.707 6.827 0 8.534-5.12 3.413-10.24 3.413-11.947 0z" />
<glyph unicode="&#xe907;" glyph-name="vimeo" d="M281.6 164.267c-13.654 0-25.6 37.546-40.96 102.4-17.066 68.266-17.066 189.44-87.040 175.786-66.56-11.946-153.6-116.053-153.6-116.053l20.48-27.307c0 0 42.666 34.134 58.026 17.067 13.653-17.067 68.266-220.16 87.040-259.413 15.36-32.426 59.733-76.8 107.52-46.080s208.214 167.253 237.226 329.387c27.307 160.427-192.853 128-216.746-13.654 58.026 35.84 90.454-13.654 59.733-69.974-29.014-54.613-56.32-92.16-71.68-92.16z" />
<glyph unicode="&#xe908;" glyph-name="tumblr" d="M172.374 36.267c5.12-11.947 13.654-23.894 25.6-34.133s27.306-18.774 46.080-25.6c18.774-5.12 32.426-8.534 54.613-8.534 20.48 0 39.253 1.707 58.026 6.827 17.067 3.413 37.546 11.947 59.733 22.187v80.214c-25.6-17.067-51.2-25.6-76.8-25.6-15.36 0-27.307 3.413-39.254 10.24-8.534 5.12-17.067 13.654-18.774 22.187-3.413 8.534-3.413 25.6-3.413 54.613v131.413h117.76v92.16h-117.76v117.76h-73.387c-3.413-25.6-8.534-47.786-18.774-64.853-8.534-17.067-20.48-32.427-34.133-44.374s-35.84-22.186-56.32-27.306v-71.68h69.974v-179.2c0-25.6 1.707-42.666 6.827-56.32z" />
<glyph unicode="&#xe909;" glyph-name="dropbox" d="M0 196.693l150.186-97.28 105.814 87.040-151.893 93.867zM150.186 461.226l-150.186-97.28 104.106-83.627 151.894 93.867zM361.813 461.226l-105.814-87.040 151.893-93.867 104.106 83.627zM361.813 99.413l150.187 97.28-104.106 83.626-151.894-93.866zM407.894 77.226v32.426l-46.080-29.014-105.814 87.040-105.814-87.040-44.374 29.014v-32.426l150.186-90.454z" />
<glyph unicode="&#xe90a;" glyph-name="yahoo" d="M197.974 186.454c1.707-11.947 3.413-80.214-1.707-85.334-10.24-10.24-54.613-6.827-66.56-8.534l-1.707-22.187c20.48 0 83.626 1.707 104.106 1.707 39.254 0 109.226 0 119.466 0l1.707 22.187c-10.24 1.707-64.853 0-71.68 1.707-1.707 10.24-3.413 83.626-1.707 90.454 6.827 22.187 122.88 110.933 134.827 114.346 3.413 0 6.827 1.707 11.947 1.707h34.133l5.12 8.534c0 0 0 0 0 0l13.654 20.48c0 0 0 0 0 0l1.707 1.707h-199.68l8.534-30.72h54.613l-92.16-83.627c-18.773 25.6-63.147 80.214-93.867 124.587h68.267v30.72c0 0 0 0 0 0v3.413h-226.987v-30.72h68.266c25.6-22.187 126.293-146.774 129.707-160.427zM445.44 271.786v-141.654l30.72-1.707 35.84 138.24c-5.12-1.707-59.733 3.413-66.56 5.12zM472.747 70.4l5.12 34.134h-17.067l-20.48 3.413v-34.134l15.36-1.707z" />
<glyph unicode="&#xe90b;" glyph-name="instagram" d="M413.014 480h-314.026c-54.614 0-98.987-44.373-98.987-98.986v-314.027c0-54.613 44.373-98.986 98.987-98.986h314.026c54.613 0 98.986 44.373 98.986 98.986v314.026c0 54.613-44.373 98.987-98.986 98.987zM442.026 420.267h11.947v-87.040h-87.040v87.040h75.094zM182.613 276.906c17.066 22.186 42.666 37.546 73.387 37.546s56.32-15.36 73.387-37.546c10.24-15.36 17.067-32.427 17.067-52.906 0-49.493-40.96-90.454-90.454-90.454s-90.454 40.96-90.454 90.454c0 18.774 6.827 37.547 17.066 52.906zM462.507 66.986c0-27.307-22.187-49.493-49.493-49.493h-314.026c-27.306 0-49.493 22.187-49.493 49.493v209.92h76.8c-6.826-17.066-10.24-34.133-10.24-52.906 0-76.8 63.147-139.946 139.946-139.946s139.947 63.147 139.947 139.947c0 18.774-3.413 35.84-10.24 52.906h76.8v-209.92z" />
<glyph unicode="&#xe90c;" glyph-name="vk" d="M416.426 77.226c0 0-1.707 0-1.707 0-25.6 3.413-44.373 22.187-58.026 39.254-8.534 10.24-22.187 30.72-37.546 29.014-23.894-3.413-11.947-40.96-22.187-58.026-6.827-13.654-39.253-10.24-61.44-8.534-69.974 6.827-104.106 44.373-134.827 83.627-32.427 42.666-59.733 87.040-81.92 134.827-8.534 17.067-18.773 34.134-18.773 54.613 11.947 8.534 29.014 5.12 47.786 5.12 15.36 0 39.253 3.413 51.2-1.707 6.826-3.413 13.653-22.186 18.773-34.133 11.947-27.307 23.894-46.080 39.253-68.267 6.827-10.24 17.066-27.306 29.013-25.6s11.946 30.72 13.654 49.494c0 20.48 0 46.080-6.827 58.026-5.12 10.24-15.36 10.24-25.6 17.067 8.534 17.067 32.427 18.774 61.44 18.774 23.893 0 58.026 3.413 66.56-13.654 10.24-15.36 3.413-46.080 1.707-66.56 0-23.893-5.12-49.493 11.947-61.44 13.654 1.707 20.48 13.654 27.306 23.893 17.067 22.186 27.307 40.96 39.254 68.266 5.12 11.947 10.24 30.72 20.48 34.134 13.654 5.12 37.546 1.707 58.026 1.707 17.067 0 47.786 5.12 54.613-6.827 5.12-10.24-8.534-35.84-13.654-42.667-15.36-25.6-32.426-42.666-49.493-66.56-6.827-8.534-20.48-23.894-20.48-37.546 0-11.947 11.947-18.774 20.48-27.307 18.774-17.067 32.426-30.72 46.080-49.493 5.12-6.827 18.774-22.187 17.067-32.426 0-29.014-69.974-10.24-92.16-17.067z" />
<glyph unicode="&#xe90d;" glyph-name="flickr" d="M230.4 224c0-58.439-47.374-105.813-105.814-105.813s-105.814 47.374-105.814 105.814c0 58.439 47.374 105.814 105.814 105.814s105.814-47.374 105.814-105.814zM493.226 224c0-58.439-47.374-105.813-105.813-105.813s-105.813 47.374-105.813 105.814c0 58.439 47.374 105.814 105.813 105.814s105.813-47.374 105.813-105.814z" />
<glyph unicode="&#xe90e;" glyph-name="mailru" d="M247.466 367.36c39.254 0 75.094-17.067 102.4-44.374v0c0 13.654 8.534 22.187 20.48 22.187h3.413c18.774 0 22.187-18.774 22.187-23.894v-201.386c-1.707-13.654 13.654-20.48 22.187-11.947 32.426 34.134 71.68 170.667-20.48 250.88-85.334 75.094-199.68 63.147-261.12 20.48-64.853-44.374-105.814-143.36-66.56-235.52 44.374-100.694 168.96-131.413 244.054-100.694 37.546 15.36 54.613-35.84 15.36-52.906-56.32-23.893-221.867-22.186-298.666 110.933-51.2 90.454-49.493 249.173 88.746 331.094 105.814 63.147 244.054 46.080 329.386-42.666 87.040-92.16 81.92-262.827-3.413-329.387-39.254-30.72-95.573 0-95.573 42.666v13.654c-27.307-27.306-63.147-42.666-102.4-42.666-76.8 0-145.066 68.267-145.066 145.067 0 80.214 66.56 148.48 145.066 148.48v0 0 0zM344.747 225.707c-3.413 56.32-44.373 90.454-95.573 90.454h-1.707c-58.026 0-90.453-46.080-90.453-98.987 0-58.026 39.254-95.573 90.454-95.573 58.026 0 95.574 42.666 97.28 92.16v11.947z" />
<glyph unicode="&#xe90f;" glyph-name="behance" d="M73.386 68.693h92.16c0 0 100.694-3.413 100.694 93.866 0 0 5.12 78.507-59.733 78.507 0 0 47.786 3.413 47.786 59.733s-39.254 85.334-90.454 85.334h-163.84v-317.44h73.386zM73.386 329.813h92.16c0 0 22.186 0 22.186-32.426s-13.654-37.546-29.013-37.546h-85.334v69.973zM73.386 210.346h92.16c0 0 34.133 0 34.133-44.373 0-37.546-25.6-40.96-37.547-40.96-1.707 0-5.12 0-5.12 0h-83.626v85.334zM401.067 305.92c-122.88 0-121.173-121.173-121.173-121.173s-8.534-121.173 121.173-121.173c0 0 109.226-6.827 109.226 83.626h-56.32c0 0 1.707-34.134-51.2-34.134 0 0-56.32-3.413-56.32 54.613h163.84c0 0 18.774 138.24-109.226 138.24zM346.454 210.346c0 0 6.827 49.493 56.32 49.493s47.786-49.493 47.786-49.493h-104.106zM332.8 367.36h131.413v-39.254h-131.413v39.254z" />
<glyph unicode="&#xe910;" glyph-name="dribbble" d="M256-28.587c-139.946 0-252.587 114.346-252.587 252.587s112.64 252.587 252.587 252.587c139.947 0 252.587-112.64 252.587-252.587 0-138.24-112.64-252.587-252.587-252.587v0zM469.334 189.866c-6.827 1.707-66.56 20.48-134.827 8.534 29.014-76.8 39.253-139.947 42.666-153.6 47.786 32.426 81.92 85.334 92.16 145.067v0zM339.627 26.026c-3.413 18.774-15.36 85.334-46.080 163.84 0 0-1.707 0-1.707 0-121.173-44.373-163.84-128-168.96-136.534 35.84-29.014 81.92-46.080 133.12-46.080 29.014 1.707 58.026 6.827 83.626 18.774v0zM95.573 78.933c5.12 8.534 64.853 105.813 175.787 141.654 3.413 1.707 5.12 1.707 8.534 3.413-5.12 11.947-11.947 23.893-17.067 35.84-107.52-32.427-211.626-30.72-221.867-30.72 0-1.707 0-5.12 0-6.827 0-54.613 20.48-104.106 54.614-143.36v0zM44.373 268.374c10.24 0 98.987 0 199.68 25.6-35.84 63.147-73.386 116.053-80.213 124.587-59.733-29.013-104.106-83.627-119.466-150.186v0zM204.8 432.214c5.12-8.534 44.374-61.44 80.214-126.293 76.8 29.013 109.226 71.68 112.64 78.507-37.546 34.133-88.746 54.613-143.36 54.613-15.36 0-32.427-1.707-49.493-6.827v0zM423.253 360.534c-5.12-6.827-40.96-52.906-121.173-85.334 5.12-10.24 10.24-20.48 13.654-30.72 1.707-3.413 3.413-6.827 5.12-11.946 71.68 8.534 143.36-5.12 150.186-6.827 0 51.2-18.774 97.28-47.786 134.827v0z" />
<glyph unicode="&#xe911;" glyph-name="naver" d="M331.094 445.866v-199.68l-158.72 199.68h-162.133v-443.733h170.667v197.974l157.013-197.974h163.84v443.733z" />
<glyph unicode="&#xe912;" glyph-name="baidu" d="M368.64-25.173c-27.307 0-49.493 5.12-68.267 8.534-17.067 3.413-32.426 6.827-49.493 6.827-18.774 0-34.133-1.707-49.493-5.12-18.774-3.413-39.254-6.827-66.56-6.827-58.026 0-78.507 58.026-78.507 93.866 0 40.96 23.894 63.147 56.32 90.454 22.186 18.774 47.786 40.96 71.68 76.8 17.066 23.894 39.254 35.84 68.266 35.84 22.187 0 46.080-3.413 66.56-30.72 30.72-56.32 61.44-81.92 87.040-102.4 25.6-22.187 46.080-39.254 49.493-76.8 1.707-22.187-8.534-47.786-23.894-66.56-20.48-15.36-40.96-23.894-63.147-23.894zM250.88 12.373c20.48 0 37.546-3.413 54.613-6.827 18.774-3.413 37.546-8.534 64.853-8.534 17.067 0 32.426 6.827 42.666 18.774 13.654 15.36 20.48 35.84 18.774 49.493-1.707 29.014-17.067 42.666-40.96 63.147s-58.026 49.493-90.454 107.52c-13.654 18.774-27.306 22.186-49.493 22.186s-37.547-8.533-51.2-27.306v0c-25.6-37.546-52.906-61.44-75.094-81.92-29.013-25.6-47.786-42.666-47.786-75.094 0-29.014 15.36-73.387 58.026-73.387 25.6 0 44.374 3.413 63.147 5.12 17.066 3.413 32.427 6.827 52.906 6.827zM419.84 169.387c-39.253 0-64.853 29.014-66.56 75.094 0 23.894 5.12 44.374 17.067 59.733s29.014 23.893 46.080 23.893v0c0 0 0 0 0 0 15.36 0 66.56-18.773 66.56-83.626 3.413-44.373-22.187-75.094-63.147-75.094 1.707 0 1.707 0 0 0zM419.84 309.333c-11.947 0-22.187-6.827-30.72-17.066-8.534-11.947-13.654-29.013-13.654-47.786 0-34.134 17.067-54.613 46.080-54.613s44.373 20.48 44.373 56.32c-1.707 54.613-44.373 63.147-46.080 63.147zM92.16 196.693c-13.653 0-25.6 5.12-37.547 15.36-17.066 15.36-27.306 37.547-29.014 64.853-1.706 22.186 3.413 42.666 13.654 59.733 11.947 15.36 27.307 27.307 46.080 27.307 17.067 1.707 34.133-6.827 47.786-22.187 11.946-15.36 20.48-34.134 22.186-56.32v0c3.413-46.080-23.893-85.334-58.026-88.747-1.707 0-3.413 0-5.12 0zM88.746 343.466c0 0-1.707 0-1.707 0-11.947 0-22.186-6.827-29.014-18.774-8.533-11.947-11.947-29.014-10.24-46.080 1.706-20.48 10.24-39.254 22.186-51.2 5.12-5.12 13.653-10.24 25.6-10.24 23.894 1.707 40.96 32.427 39.254 66.56v0c-1.707 17.066-6.826 34.133-17.067 44.373-8.534 10.24-18.773 15.36-29.014 15.36zM324.267 297.387c-5.12 0-8.534 0-11.947 1.707-34.133 8.534-52.906 52.906-42.666 97.28 6.827 25.6 20.48 46.080 40.96 58.026 13.654 8.534 29.014 11.947 42.666 8.534 8.534-1.706 22.187-13.653 32.426-30.72 8.534-13.654 17.067-37.546 10.24-66.56-5.12-20.48-17.067-39.254-32.426-51.2-11.947-11.947-25.6-17.066-39.254-17.066zM341.334 444.16c-8.534 0-15.36-3.413-18.774-5.12-15.36-10.24-27.306-27.307-32.426-47.786-8.534-34.134 3.413-66.56 27.307-71.68 10.24-3.413 22.187 0 34.134 8.534 11.947 10.24 20.48 23.894 25.6 40.96 10.24 42.666-22.187 69.974-27.307 71.68-3.413 1.707-6.827 3.413-8.534 3.413zM197.974 305.92c-34.133 0-63.147 37.547-63.147 83.627s29.013 83.627 63.147 83.627 63.147-37.547 63.147-83.627-29.013-83.627-63.147-83.627zM197.974 452.693c-22.186 0-42.666-29.013-42.666-63.146s18.774-63.147 42.666-63.147 42.666 29.014 42.666 63.147-20.48 63.146-42.666 63.146z" />
</font>
</defs>
</svg>
